{"asset":{"generator":"Khronos glTF Blender I/O v4.4.56","version":"2.0"},"scene":0,"scenes":[{"nodes":[0]}],"nodes":[{"mesh":0,"name":"Tree Small 02 — web optimized"}],"meshes":[{"primitives":[{"attributes":{"POSITION":0,"NORMAL":1,"TEXCOORD_0":2,"TEXCOORD_1":3},"indices":4,"material":0},{"attributes":{"POSITION":5,"NORMAL":6,"TEXCOORD_0":7,"TEXCOORD_1":8},"indices":9,"material":1},{"attributes":{"POSITION":10,"NORMAL":11,"TEXCOORD_0":12,"TEXCOORD_1":13},"indices":14,"material":2}]}],"materials":[{"doubleSided":true,"name":"tree_small_02_branches","normalTexture":{"extensions":{"KHR_texture_transform":{"offset":[0,0.40000009536743164],"scale":[3,0.5999999046325684]}},"index":0,"texCoord":1},"pbrMetallicRoughness":{"baseColorTexture":{"extensions":{"KHR_texture_transform":{"offset":[0,0.40000009536743164],"scale":[3,0.5999999046325684]}},"index":1,"texCoord":1},"metallicFactor":0,"metallicRoughnessTexture":{"extensions":{"KHR_texture_transform":{"offset":[0,0.40000009536743164],"scale":[3,0.5999999046325684]}},"index":2,"texCoord":1}}},{"alphaMode":"OPAQUE","doubleSided":true,"name":"tree_small_02_leaves","normalTexture":{"index":3},"pbrMetallicRoughness":{"baseColorTexture":{"index":4},"metallicFactor":0,"metallicRoughnessTexture":{"index":5}}},{"doubleSided":true,"name":"tree_small_02_trunk","normalTexture":{"index":6},"pbrMetallicRoughness":{"baseColorTexture":{"index":7},"metallicFactor":0,"metallicRoughnessTexture":{"index":8}}}],"textures":[{"sampler":0,"source":0},{"sampler":0,"source":1},{"sampler":0,"source":2},{"sampler":0,"source":3},{"sampler":0,"source":4},{"sampler":0,"source":5},{"sampler":0,"source":6},{"sampler":0,"source":7},{"sampler":0,"source":8}],"images":[{"mimeType":"image/jpeg","name":"tree_small_02_branch_nor_gl","uri":"textures/tree_small_02_branch_nor_gl_1k.jpg"},{"mimeType":"image/jpeg","name":"tree_small_02_branch_diff","uri":"textures/tree_small_02_branch_diff_1k.jpg"},{"mimeType":"image/jpeg","name":"tree_small_02_branch_rough","uri":"textures/tree_small_02_branch_arm_1k.jpg"},{"mimeType":"image/jpeg","name":"tree_small_02_leaves_nor_gl","uri":"textures/tree_small_02_leaves_nor_gl_1k.jpg"},{"mimeType":"image/jpeg","name":"tree_small_02_leaves_diff-tree_small_02_leaves_alpha","uri":"textures/tree_small_02_leaves_diff_1k.jpg"},{"mimeType":"image/jpeg","name":"tree_small_02_leaves_rough","uri":"textures/tree_small_02_leaves_arm_1k.jpg"},{"mimeType":"image/jpeg","name":"tree_small_02_nor_gl","uri":"textures/tree_small_02_nor_gl_1k.jpg"},{"mimeType":"image/jpeg","name":"tree_small_02_diff","uri":"textures/tree_small_02_diff_1k.jpg"},{"mimeType":"image/jpeg","name":"tree_small_02_rough","uri":"textures/tree_small_02_arm_1k.jpg"}],"samplers":[{"magFilter":9729,"minFilter":9987}],"extensionsUsed":["KHR_texture_transform"],"accessors":[{"bufferView":0,"componentType":5126,"count":62334,"type":"VEC3","min":[-1.095399022102356,1.6240153312683105,-1.2641923427581787],"max":[1.418749451637268,4.392509460449219,2.7931995391845703]},{"bufferView":1,"componentType":5126,"count":62334,"type":"VEC3","min":[-0.9994632601737976,-0.999868631362915,-0.9998332858085632],"max":[0.999882698059082,0.9996804594993591,0.999987006187439]},{"bufferView":2,"componentType":5126,"count":62334,"type":"VEC2"},{"bufferView":3,"componentType":5126,"count":62334,"type":"VEC2"},{"bufferView":4,"componentType":5125,"count":284400,"type":"SCALAR"},{"bufferView":5,"componentType":5126,"count":225415,"type":"VEC3","min":[-1.292972445487976,1.4583466053009033,-1.3826267719268799],"max":[1.6077065467834473,4.532637119293213,2.909736156463623]},{"bufferView":6,"componentType":5126,"count":225415,"type":"VEC3","min":[-0.9999843835830688,-0.9998784065246582,-0.9999939203262329],"max":[0.999996542930603,0.999997615814209,0.9999955892562866]},{"bufferView":7,"componentType":5126,"count":225415,"type":"VEC2"},{"bufferView":8,"componentType":5126,"count":225415,"type":"VEC2"},{"bufferView":9,"componentType":5125,"count":561927,"type":"SCALAR"},{"bufferView":10,"componentType":5126,"count":8427,"type":"VEC3","min":[-0.7654515504837036,-0.024031998589634895,-0.39323970675468445],"max":[0.9283564686775208,3.6645729541778564,1.9231672286987305]},{"bufferView":11,"componentType":5126,"count":8427,"type":"VEC3","min":[-0.9999215006828308,-0.9970239400863647,-0.9998980760574341],"max":[0.9999815225601196,0.9991648197174072,0.9999166131019592]},{"bufferView":12,"componentType":5126,"count":8427,"type":"VEC2"},{"bufferView":13,"componentType":5126,"count":8427,"type":"VEC2"},{"bufferView":14,"componentType":5125,"count":51816,"type":"SCALAR"}],"bufferViews":[{"buffer":0,"byteOffset":0,"byteLength":748008,"target":34962},{"buffer":0,"byteOffset":748008,"byteLength":748008,"target":34962},{"buffer":0,"byteOffset":1496016,"byteLength":498672,"target":34962},{"buffer":0,"byteOffset":1994688,"byteLength":498672,"target":34962},{"buffer":0,"byteOffset":2493360,"byteLength":1137600,"target":34963},{"buffer":0,"byteOffset":3630960,"byteLength":2704980,"target":34962},{"buffer":0,"byteOffset":6335940,"byteLength":2704980,"target":34962},{"buffer":0,"byteOffset":9040920,"byteLength":1803320,"target":34962},{"buffer":0,"byteOffset":10844240,"byteLength":1803320,"target":34962},{"buffer":0,"byteOffset":12647560,"byteLength":2247708,"target":34963},{"buffer":0,"byteOffset":14895268,"byteLength":101124,"target":34962},{"buffer":0,"byteOffset":14996392,"byteLength":101124,"target":34962},{"buffer":0,"byteOffset":15097516,"byteLength":67416,"target":34962},{"buffer":0,"byteOffset":15164932,"byteLength":67416,"target":34962},{"buffer":0,"byteOffset":15232348,"byteLength":207264,"target":34963}],"buffers":[{"uri":"tree-web.bin","byteLength":15439612}]}